<svg id="ea3ead86-fba8-429d-be5d-cd3f80cebbc2" data-name="Layer 1" xmlns="http://www.w3.org/2000/svg" xmlns:xlink="http://www.w3.org/1999/xlink" viewBox="0 0 599.29 239.6">
  <defs>
    <style>
      .a111d3c8-5068-4976-b28a-5f6d1c8bd500 {
        fill: #fff;
      }

      .a0c70b08-ed5b-4efd-8282-6c9687f5eee4 {
        fill: url(#a55ffa42-4d8d-4b37-ac90-0db35c1b493e);
      }

      .a46b3a46-c988-4977-9e74-022c7ff2a2eb {
        fill: none;
      }

      .bb91b293-0edf-4c84-890e-b3b5cee9aa3f {
        fill: url(#bedae8ea-24e7-402a-99a4-849e57ee5a9d);
      }
    </style>
    <linearGradient id="a55ffa42-4d8d-4b37-ac90-0db35c1b493e" x1="502.46" y1="807.96" x2="608.61" y2="807.96" gradientUnits="userSpaceOnUse">
      <stop offset="0" stop-color="#08b420"/>
      <stop offset="1" stop-color="#88e94e"/>
    </linearGradient>
    <linearGradient id="bedae8ea-24e7-402a-99a4-849e57ee5a9d" x1="619.72" y1="808.27" x2="728.37" y2="808.27" gradientUnits="userSpaceOnUse">
      <stop offset="0" stop-color="#54cae8"/>
      <stop offset="1" stop-color="#0458b8"/>
    </linearGradient>
  </defs>
  <g>
    <path class="a111d3c8-5068-4976-b28a-5f6d1c8bd500" d="M581.37,984.56c-8.67,0-16.56.21-24.41-.16-1.73-.08-3.93-1.83-4.94-3.42-6-9.59-11.85-19.33-17.63-29.08-1.43-2.42-3.12-3.58-6-3.4-4.19.25-8.41.06-13.05.06v35.77H492.16V875.74c18.3,0,36.46-1.12,54.42.31,18.41,1.47,31.28,19.31,30,38-.91,13.13-6.13,23.26-18.53,28.93a20.47,20.47,0,0,0-2.28,1.5Zm-65.81-58.09a10.16,10.16,0,0,0,1.71.37c6.62,0,13.24.11,19.86,0,8.56-.19,14.65-5.25,15.32-12.46.81-8.69-4-15.91-12.71-17-7.86-1-15.92-.2-24.18-.2Z" transform="translate(-265.71 -747.24)"/>
    <path class="a111d3c8-5068-4976-b28a-5f6d1c8bd500" d="M473.4,888.19l-16.77,14.68c-5.62-2.31-10.59-5.45-15.94-6.36-16.53-2.81-30.88,7.31-35.42,24.09-5.09,18.86,5.48,38.12,23.8,42.45,4.61,1.09,9.68.43,14.52.29,3.56-.11,4.94-2,4.83-5.84-.31-10.72-.13-21.45-.14-32.18v-4.88H472.8c.09,1.4.26,2.89.26,4.39,0,14.83-.08,29.66.07,44.48a7.11,7.11,0,0,1-3.39,6.59c-31.65,22.83-81.34,9.81-89.21-38.45-4.69-28.83,14.76-57,43.3-63.21C442.34,870.21,459.09,874.58,473.4,888.19Z" transform="translate(-265.71 -747.24)"/>
    <path class="a111d3c8-5068-4976-b28a-5f6d1c8bd500" d="M865,984.51c-7.6,0-14.39.2-21.14-.15-1.5-.08-3.53-1.84-4.22-3.34-2.71-5.84-5-11.86-7.39-17.86-1-2.46-2.35-3.56-5.24-3.51-10.72.2-21.45.14-32.17,0-2.73,0-4.2.66-5.16,3.45-2.16,6.24-4.66,12.36-7.28,18.42-.56,1.29-2.17,2.94-3.36,3-7.07.28-14.15.14-21.92.14,3.25-8.34,6.23-16.08,9.27-23.8,10.69-27.08,21.47-54.12,32-81.26,1.42-3.65,3.16-5.25,7.15-4.84a50.64,50.64,0,0,0,10.87,0c4.19-.46,6,1.27,7.49,5.08,12.22,31.54,24.65,63,37,94.49C862.18,977.51,863.47,980.68,865,984.51Zm-41.87-46.46c-4-10.1-7.82-19.53-11.94-29.8-4.16,10.43-8,19.94-11.89,29.8Z" transform="translate(-265.71 -747.24)"/>
    <path class="a111d3c8-5068-4976-b28a-5f6d1c8bd500" d="M265.71,984.56c2.29-5.76,4.38-11,6.45-16.2,11.69-29.58,23.44-59.14,35-88.78,1.43-3.68,3.29-5.13,7.21-4.82,5.16.42,11.58-1.47,15.19,1s4.46,9,6.37,13.76q18.28,46.1,36.49,92.22c.29.71.51,1.45,1,2.84-7.69,0-15,.12-22.32-.14-1,0-2.36-1.79-2.9-3q-4-9.09-7.52-18.35c-1-2.6-2.57-3.43-5.33-3.39q-16.1.24-32.18,0c-2.69,0-3.87.91-4.77,3.34-2.25,6-4.93,11.93-7.15,18-.93,2.56-2.06,3.76-5,3.66C279.62,984.41,273,984.56,265.71,984.56Zm65.76-46.48-11.81-30c-4.17,10.63-7.9,20.17-11.75,30Z" transform="translate(-265.71 -747.24)"/>
    <path class="a111d3c8-5068-4976-b28a-5f6d1c8bd500" d="M727.36,949.26l17.56,13.18c-12.43,19.37-35.23,28.28-57.81,22.81-20.47-5-38.8-27-40.9-48.46-3.15-32.43,15.16-51.56,32.93-59.36,20.12-8.83,45.86-5.86,65,16.8l-17.68,13.52c-21.87-15.51-37.23-15.44-49.8.1-11.29,14-9.5,35.27,4.19,48C691,965.27,708.34,970.31,727.36,949.26Z" transform="translate(-265.71 -747.24)"/>
    <path class="a111d3c8-5068-4976-b28a-5f6d1c8bd500" d="M623.58,984.42H601.1V875.25h22.48Z" transform="translate(-265.71 -747.24)"/>
  </g>
  <path class="a0c70b08-ed5b-4efd-8282-6c9687f5eee4" d="M608.51,800.3a18.59,18.59,0,0,0-1.83-7.55c-5.32-11.18-14.35-19-24.15-26.1-16-11.55-33.65-18.33-53.5-18.92-7.95-.24-15.9-.26-23.85-.49-2.25-.07-2.75,1-2.72,2.92.18,9.45.23,18.9.46,28.35a56.09,56.09,0,0,0,.95,10c7.44,35.27,27.68,60.07,61.07,73.86a82.54,82.54,0,0,0,36.84,6.22,79.27,79.27,0,0,0-26.24-45.48c-11.61-10.23-23.09-20.67-34.73-31.18a13.52,13.52,0,0,1-5.6,1.13c-6.11,0-10.77-5-10.78-11.48,0-6.65,4.63-11.27,11.3-11.27a11.05,11.05,0,0,1,11.34,11.3c0,.28-.06.53-.07.81,12.17,11.08,24.39,22.12,36.82,32.91a90.58,90.58,0,0,1,23.44,31.23,20.67,20.67,0,0,0,1.33,2.06C608.59,832.12,608.67,816.21,608.51,800.3Z" transform="translate(-265.71 -747.24)"/>
  <path class="a46b3a46-c988-4977-9e74-022c7ff2a2eb" d="M694.16,777.79l-3.12-.47c-8.67,12.39-19.09,23-33.07,30.24-2.55,1.32-5.05,2.77-7.48,4.3-19.67,12.41-19.29,23.4-17.88,42.09,32.35,4.5,77.52-30.84,80.64-63.85-1.06,1-1.65,1.51-2.17,2.08-6.13,6.73-12.18,13.54-18.4,20.18-8.92,9.54-18.58,18.07-30.71,23.54a11.56,11.56,0,0,1-12.34,11c-5.58-.22-11-5.86-10.94-11.41.06-6.34,5.74-11.6,12.32-11.4a11.89,11.89,0,0,1,3.86.78c15.58-8.13,27.56-20.28,38.86-33.38C700,784.17,705.43,776,714.09,771c.32-3.32.66-6.63.91-10,0-.18-.72-.62-1.11-.62-3.8,0-7.8-.56-11.31.48" transform="translate(-265.71 -747.24)"/>
  <path class="bb91b293-0edf-4c84-890e-b3b5cee9aa3f" d="M728.24,749.26c0-.68-1.5-2-2.27-2-12.19.36-24.53-.11-36.55,1.58-27,3.79-49.47,16.69-68,36.51a4.62,4.62,0,0,0-1.3,2.65c-.13,4.45-.06,8.91-.06,14.15,19.92-16,37.63-34.41,64.44-38.82l18.11-2.45c3.51-1,7.51-.44,11.31-.48.39,0,1.12.44,1.11.62-.25,3.33-.59,6.64-.91,10-8.66,5-14.07,13.18-20.36,20.47-11.3,13.1-23.28,25.25-38.86,33.38a11.89,11.89,0,0,0-3.86-.78c-6.58-.2-12.26,5.06-12.32,11.4-.05,5.55,5.36,11.19,10.94,11.41a11.56,11.56,0,0,0,12.34-11c12.13-5.47,21.79-14,30.71-23.54,6.22-6.64,12.27-13.45,18.4-20.18.52-.57,1.11-1.08,2.17-2.08-3.12,33-48.29,68.35-80.64,63.85-1.41-18.69-1.79-29.68,17.88-42.09,2.43-1.53,4.93-3,7.48-4.3A82.92,82.92,0,0,0,680.86,790a9.21,9.21,0,0,0,2.07.33,11.59,11.59,0,0,0,12.41-11.54,11,11,0,0,0-11-11.27c-6.57-.2-12.25,5.06-12.31,11.4a8.61,8.61,0,0,0,.17,1.6,71.6,71.6,0,0,1-11,9.4c-7.19,5-15,9-22.29,13.82-8.18,5.36-14.71,12.24-17.62,21.88a30.5,30.5,0,0,0-1.47,8.1c-.16,11.5-.07,23-.07,35.57,10.84-.81,21.2-.33,31-2.53,36.88-8.33,61.34-30.92,73.6-66.75C730,783.39,728,766.25,728.24,749.26Z" transform="translate(-265.71 -747.24)"/>
</svg>
